Patient4_TMGait_0pt7_02_left_18_EMG.mot
version=1
nRows=23
nColumns=33
inDegrees=no
endheader
time	1LAddLong	2LGlutMax	3LGlutMed	4LIliopsoas	5LSemiMemb	6LBicFemLong	7LRecFem	8LVastMed	9LVastLat	10LGasMed	11LTibAnt	12lTibPost	13LPeroneusLong	14LSol	15LExtDigLong	16LFlexDigLong	17RAddLong	18RGlutMax	19RGlutMed	20RIliopsoas	21RSemiMemb	22RBicFemLong	23RRecFem	24RVastMed	25RVastLat	26RGasMed	27RTibAnt	28RTibPost	29RPeroneusLong	30RSol	31RExtDigLong	32RFlexDigLong
21.558	0.011139	-0.083771	0.000763	0.007324	0.016937	-0.003815	0.031738	-0.008087	0.067749	-0.049133	0.059204	-0.001373	0.074005	-0.033112	0.24826	0.028229	-0.023346	-0.25787	0.39002	-0.059357	-0.12466	-0.039825	-0.22522	0.063019	1.0687	0.006104	0.14008	0.019226	0.053406	0.14114	-0.000153	-0.002441
21.559	0.020294	-0.15518	-0.008392	0.010986	0.011597	-0.006409	0.048523	0.005188	0.065308	-0.038605	0.024567	-0.005035	0.07019	-0.001221	0.68237	0	-0.016937	-0.24368	0.49301	-0.088501	0.12436	-0.17883	-0.24414	-0.01297	0.72235	-0.012512	0.63141	0.006256	0.84763	0.02594	-0.000763	0.008545
21.56	0.020447	-0.15274	-0.019989	0.00885	-0.001373	0.000763	0.026703	-0.010071	0.070343	-0.040588	0.07782	-0.000458	-0.001678	0.036926	-0.14435	0.014801	0.015869	-0.23956	-0.068817	-0.08606	0.043945	-0.19028	-0.37521	-0.19104	0.448	-0.016632	0.51514	0.001831	0.44998	0.23285	-0.001831	0.005188
21.561	0.020447	-0.14175	-0.036469	-0.00412	-0.011292	-0.002747	0.030518	0.00885	0.072937	-0.045319	0.15686	-0.003357	-0.02243	0.054474	-0.27496	-0.00412	0.004883	-0.2124	-0.14038	0.00351	-0.013123	-0.11398	-0.63446	-0.018311	0.3624	-0.001831	-0.041962	-0.00412	0.11185	0.21027	-0.001068	-0.016632
21.562	0.012512	-0.1384	-0.03952	-0.011292	-0.017395	-0.020294	0.017242	-0.009155	0.059814	-0.071411	0.034485	-0.003662	0.059052	0.05188	-0.24582	-0.002136	-0.016479	-0.27542	0.035706	0.057526	0.031281	-0.099182	-0.27542	0.32242	-0.23193	-0.023804	-0.2243	-0.0354	0.062561	0.11627	0.002441	-0.007935
21.563	0.010986	-0.12116	-0.030365	0.016632	-0.020447	0.003815	0.030518	-0.011292	0.047607	-0.068207	-0.037689	-0.002289	0.11749	0.044861	-0.20493	0.010681	0.005798	-0.25879	0.22492	0.031738	0.005341	-0.085144	0.19653	0.23148	-0.88242	-0.031281	-0.35751	-0.050659	0.075226	0.17227	0.000153	-0.000916
21.564	0.012817	-0.13351	-0.031281	0.032654	-0.029449	-0.009766	0.0354	-0.001831	0.037079	-0.035706	-0.002594	-0.004578	0.12802	-0.028381	-0.41077	0.015564	-0.003967	-0.19501	0.13001	-0.031433	0.006866	-0.08667	0.11963	0.015259	-1.1786	-0.11322	-0.53238	-0.067444	0.059357	-0.005951	0.000916	-0.005493
21.565	0.010529	-0.13519	-0.078888	0.010834	-0.001526	-0.038147	0.041504	-0.009003	0.029297	-0.02533	0.000916	-0.001373	0.12024	-0.11429	-0.33493	0.002136	-0.001221	-0.21454	0.1059	-0.040436	0.090942	-0.096436	0.082092	0.075226	-0.57785	-0.18784	-0.40741	-0.072479	0.009918	-0.068359	-0.002594	-0.010071
21.566	0.010834	-0.11139	-0.060272	-0.00885	0.015106	-0.053253	0.045319	-0.009613	0.02243	-0.031128	-0.029144	0.003967	0.14465	-0.15533	-0.18204	0.005341	0.03418	-0.14801	-0.22018	0.096283	0.19684	-0.053864	0.23483	0.019989	-0.21484	-0.17868	-0.29785	-0.13443	-0.22934	-0.029755	-0.005341	-0.005951
21.567	0.008698	-0.1326	-0.052338	0.004883	0.01297	0.007629	0.033264	-0.009308	0.023804	-0.040894	-0.031586	-0.000763	0.12604	-0.12039	-0.028381	0.009308	0.071411	-0.22186	-0.51392	0.12054	0.25971	-0.054474	0.25375	-0.036163	-0.11307	-0.075989	-0.31937	-0.12329	-0.44144	-0.18188	-0.001984	-0.011139
21.568	0.01358	-0.13473	-0.054779	0.007019	-0.002747	0.036011	0.025024	-0.012665	0.015869	-0.031128	-0.018005	0.008698	0.076904	-0.079803	0.080261	0.011749	0.07431	-0.21179	-0.64804	0.18448	-0.075531	-0.077972	0.22476	-0.065765	-0.067902	0.049896	-0.15182	-0.069275	-0.50308	-0.20462	-0.003967	-0.011597
21.569	0.011444	-0.073395	-0.079651	0.011292	-0.002136	0.032501	0.040283	-0.006561	0.013733	-0.04303	-0.005188	-0.004578	0.049744	-0.026398	0.12451	0.006866	0.026093	-0.10239	-0.42038	0.057526	-0.32272	-0.096436	0.1741	-0.020294	-0.044861	-0.017548	0.298	0.24445	-0.44846	-0.30441	-0.005493	-0.014801
21.57	0.00946	-0.084991	-0.060425	0.021362	-0.013733	0.020142	0.014648	-0.00412	0.014954	-0.034332	0.004272	-0.001984	0.077667	0.003052	0.12024	0.005035	-0.046997	-0.08194	0.35126	-0.083466	-0.36118	-0.083923	-0.01297	0.059052	-0.025024	0.16007	0.99258	0.15884	-0.17105	-0.28458	-0.001373	-0.014191
21.571	0.001984	-0.043335	-0.040436	-0.002441	-0.025024	0.028381	0.029755	-0.007935	0.008392	-0.037842	0.006256	0.003052	0.099945	-0.037231	-0.020142	0.000763	-0.029449	-0.08316	0.70297	-0.009766	-0.19989	-0.055389	-0.15915	0.041046	-0.066986	0.13168	1.0501	0.091705	0.035553	0.12299	0.000916	-0.016174
21.572	0.00412	-0.053711	-0.000153	0.003204	-0.041046	0.023651	-0.003815	0.000763	0.017853	-0.037231	0.029449	-0.001068	0.075989	-0.050049	-0.070648	-0.011749	0.007172	-0.11856	0.22507	0.13733	-0.16556	-0.005341	-0.19257	-0.063019	-0.059052	0.044861	1.1288	0.037384	-0.027618	-0.12894	0.000763	-0.013733
21.573	0.008545	-0.063171	0.027313	0.002136	-0.073242	0.003662	0.000305	-0.010223	0.014648	-0.031128	0.080414	0.005493	0.078735	-0.020599	0.005341	0.001068	-0.022278	-0.14603	0.062866	0.14832	-0.13489	-0.067749	-0.15625	-0.043335	-0.046844	0.041351	0.89508	0.001526	0.18234	-0.61737	0.00885	-0.001831
21.574	0.00946	-0.068817	0.040588	-0.014801	-0.10574	-0.002136	-0.005188	-0.007629	0.019684	-0.039215	0.12634	0.004272	0.077515	-0.007324	0.093994	0.002441	-0.036316	-0.10773	-0.031433	0.10391	0.10605	-0.16739	-0.069275	-0.032501	0.025177	0.054474	-0.63156	0.001526	0.2858	-0.5339	-0.001221	-0.011139
21.575	0.014801	-0.077667	0.060577	-0.005798	-0.057983	0.005188	0.001831	-0.003815	0.011902	-0.050201	0.06134	-0.00351	0.10834	-0.011902	0.068054	0.008698	-0.031128	-0.14801	-0.23361	0.008087	-0.057678	-0.11169	-0.081635	0.0354	0.041656	0.071716	-1.2173	-0.006409	0.21469	-0.23346	-0.001984	-0.009308
21.576	0.017242	-0.053253	-0.003815	-0.000458	-0.055542	-0.024872	-0.018768	-0.011444	0.020447	-0.075073	-0.085297	0.001373	0.1355	-0.026855	-0.006104	-0.003052	-0.055237	-0.15228	-0.2066	-0.052795	0.001373	-0.075684	-0.09079	0.004425	-0.028076	0.00061	-0.44571	-0.011902	0.023193	0.006104	0.00061	-0.016022
21.577	0.020752	-0.024872	-0.021973	0.006256	0.030823	-0.054016	-0.042419	0	0.026398	-0.070343	-0.09491	-0.001984	0.13748	-0.071869	-0.009766	0.00412	-0.028534	-0.067444	-0.15427	-0.072479	-0.029907	0.017395	-0.10223	0.073547	-0.006866	-0.052185	-0.23621	-0.007782	0.072327	-0.12787	0.000305	0.00412
21.578	0.012665	-0.019836	-0.011444	-0.002136	0.088348	-0.055084	-0.031433	-0.009613	0.024567	-0.065155	-0.030975	-0.002594	0.11246	-0.10162	-0.009003	0.007477	0.004578	-0.1413	0.12604	-0.051575	-0.2356	0.14389	-0.011902	0.046844	-0.03006	0.042114	-1.0733	-0.02243	0.29633	-0.070038	0	-0.012817
21.579	0.01236	-0.02243	-0.058899	-0.000916	0.067749	-0.015717	-0.025177	0.001068	0.020905	-0.065155	-0.029144	0.000763	0.1062	-0.083008	0.013428	0.002899	0.021515	-0.030365	0.18662	-0.010986	-0.39505	0.16693	0.061035	-0.046539	-0.0354	0.038452	-1.0559	-0.032349	0.32623	0.33325	-0.000916	-0.005035
21.58	0.007935	-0.007782	-0.11398	-0.016479	0.015106	-0.023651	-0.006866	-0.00412	0.0177	-0.069427	-0.015106	-0.003052	0.10712	-0.049133	0.0354	0.011902	0.036163	-0.11169	0.14008	0.075684	-0.023804	0.026093	0.029602	-0.075073	-0.025635	-0.02121	-0.33356	-0.026245	0.19043	0.37384	0.002441	-0.013733
